<svg
        width="16"
        height="16"
        viewBox="0 0 1000 1000"
        fill="none"
        xmlns="http://www.w3.org/2000/svg"
      >
        <circle cx="500" cy="500" r="500" className="fill-foreground" fill="#F9FAFB" />
        <path
          fillRule="evenodd"
          clipRule="evenodd"
          d="M383.239 650H270C258.954 650 250 641.046 250 630V270C250 258.954 258.954 250 270 250H590C601.046 250 610 258.954 610 270V360.592C695.606 383.24 758.71 461.228 758.71 553.955C758.71 664.412 669.167 753.955 558.71 753.955C483.061 753.955 417.222 711.954 383.239 650ZM300 600V300H560V353.959C559.57 353.956 559.141 353.955 558.71 353.955C448.253 353.955 358.71 443.498 358.71 553.955C358.71 569.801 360.553 585.217 364.036 600H300ZM610 412.952C667.585 433.904 708.71 489.127 708.71 553.955C708.71 636.797 641.553 703.955 558.71 703.955C512.406 703.955 471.002 682.974 443.487 650H590C601.046 650 610 641.046 610 630V412.952ZM560 403.96V600H415.91C411.235 585.491 408.71 570.018 408.71 553.955C408.71 471.112 475.868 403.955 558.71 403.955C559.141 403.955 559.571 403.956 560 403.96Z"
          className="fill-background"
          fill="#030712"
        />
      </svg>